<svg id="Camada_1" data-name="Camada 1" xmlns="http://www.w3.org/2000/svg" viewBox="0 0 174 42"><defs><style>.cls-1{fill:#e8441e;}</style></defs><title>logo</title><path class="cls-1" d="M81.48,55.47h-6c-6,0-12-6-12-12v-6c0-6,6-12,12-12h6c6,0,12,6,12,12v6C93.48,49.47,87.48,55.47,81.48,55.47Zm6-18a6.45,6.45,0,0,0-6-6h-6a6.45,6.45,0,0,0-6,6v6a6.45,6.45,0,0,0,6,6h6a6.45,6.45,0,0,0,6-6v-6Z" transform="translate(-27.48 -13.47)"/><path class="cls-1" d="M111.48,55.47c-6,0-12-6-12-12v-6c0-6,6-12,12-12h18v6h-18c-3,.18-6,3-6,6v6a6.55,6.55,0,0,0,6,6h18v6h-18Z" transform="translate(-27.48 -13.47)"/><path class="cls-1" d="M147.48,25.47h12v-12h6v42h-18c-6,0-12-6-12-12v-6C135.48,31.47,141.48,25.47,147.48,25.47Zm12,6h-12c-3,.18-6,3-6,6v6a6.55,6.55,0,0,0,6,6h12v-18Z" transform="translate(-27.48 -13.47)"/><path class="cls-1" d="M189.48,55.47h-6c-6,0-12-6-12-12v-6c0-6,6-12,12-12h6c6,0,12,6,12,12v6C201.48,49.47,195.48,55.47,189.48,55.47Zm6-18a6.45,6.45,0,0,0-6-6h-6a6.45,6.45,0,0,0-6,6v6a6.45,6.45,0,0,0,6,6h6a6.45,6.45,0,0,0,6-6v-6Z" transform="translate(-27.48 -13.47)"/><path class="cls-1" d="M27.48,37.47c0-6,6-12,12-12h6c6,0,12,6,12,12v18h-6v-18c-0.18-3-3-6-6-6h-6a6.55,6.55,0,0,0-6,6v18h-6v-18Z" transform="translate(-27.48 -13.47)"/></svg>